<svg width="240" height="336" viewBox="0 0 240 336" fill="none" xmlns="http://www.w3.org/2000/svg">
<rect width="240" height="336" rx="11" fill="white"/>
<rect width="240" height="336" rx="11" fill="white"/>
<path d="M220 288.637L216.016 290.7C214.639 287.863 212.14 286.463 208.482 286.463C206.598 286.463 205.005 286.979 203.737 288.01C202.469 289.042 201.817 290.884 201.817 293.5C201.817 295.968 202.578 297.663 204.063 298.547C205.548 299.432 207.323 299.874 209.315 299.874H211.452V303.116H209.315C207.613 303.116 206.091 303.595 204.751 304.516C203.375 305.474 202.723 306.947 202.723 308.937C202.723 310.889 203.266 312.326 204.353 313.21C205.439 314.095 206.816 314.537 208.482 314.537C211.561 314.537 213.806 313.137 215.146 310.3L219.131 312.363C216.45 316.121 212.901 318 208.446 318C205.331 318 202.759 317.189 200.803 315.532C198.847 313.874 197.869 311.7 197.869 308.937C197.869 305.289 199.789 302.784 203.665 301.495C199.21 300.5 197 297.847 197 293.5C197 290.074 198.087 287.458 200.26 285.689C202.433 283.921 205.15 283 208.482 283C213.48 283 217.32 284.879 220 288.637Z" fill="#222222"/>
<path d="M209.028 252.312L216.54 261.064L209.028 269.84L201.516 261.064L209.028 252.312Z" fill="#F24E1E"/>
<path d="M20 47.3632L23.9843 45.3C25.3606 48.1369 27.8598 49.5369 31.5181 49.5369C33.4015 49.5369 34.9952 49.0211 36.2629 47.9895C37.5307 46.9579 38.1826 45.1159 38.1826 42.5001C38.1826 40.0317 37.422 38.3368 35.937 37.4526C34.4519 36.5684 32.6771 36.1264 30.685 36.1264H28.548V32.8842H30.685C32.3873 32.8842 33.9086 32.4053 35.2488 31.4842C36.6252 30.5263 37.2771 29.0527 37.2771 27.0632C37.2771 25.1106 36.7339 23.6738 35.6473 22.7895C34.5606 21.9053 33.1842 21.4632 31.5181 21.4632C28.4393 21.4632 26.1937 22.8633 24.8535 25.7001L20.8693 23.6368C23.5496 19.8789 27.0992 18 31.5543 18C34.6693 18 37.2409 18.8106 39.1968 20.4685C41.1527 22.1264 42.1306 24.3001 42.1306 27.0632C42.1306 30.7106 40.2109 33.2158 36.3353 34.5053C40.7905 35.5 43 38.1527 43 42.5001C43 45.9264 41.9133 48.5422 39.7401 50.3106C37.5668 52.079 34.8504 53 31.5181 53C26.5197 53 22.6803 51.1211 20 47.3632Z" fill="#222222"/>
<path d="M30.972 83.6878L23.4601 74.9364L30.972 66.1599L38.484 74.9364L30.972 83.6878Z" fill="#F24E1E"/>
<path d="M116.579 197.506L95.7014 173.184C97.2138 172.008 98.1869 170.171 98.1869 168.108C98.1869 166.12 97.2847 164.344 95.8676 163.165L116.592 138.952C117.655 139.729 118.964 140.187 120.381 140.187C121.799 140.187 123.11 139.728 124.172 138.95L144.899 163.165C143.482 164.344 142.579 166.12 142.579 168.108C142.579 170.171 143.552 172.008 145.065 173.184L124.185 197.509C123.12 196.725 121.805 196.262 120.381 196.262C118.958 196.262 117.644 196.724 116.579 197.506Z" fill="#F24E1E"/>
<path fill-rule="evenodd" clip-rule="evenodd" d="M90.9414 161.734L114.032 134.756C113.982 134.432 113.956 134.1 113.956 133.762C113.956 130.213 116.832 127.336 120.381 127.336H120.383C123.931 127.338 126.806 130.214 126.806 133.762C126.806 134.098 126.78 134.429 126.73 134.752L149.825 161.734C152.986 162.137 155.43 164.837 155.43 168.107C155.43 168.165 155.429 168.223 155.428 168.28L155.43 168.283L155.427 168.285C155.344 171.362 153.097 173.899 150.153 174.43L126.733 201.715C126.781 202.032 126.806 202.356 126.806 202.687C126.806 206.235 123.931 209.111 120.383 209.112H120.381C116.832 209.112 113.956 206.235 113.956 202.687C113.956 202.355 113.981 202.029 114.029 201.71L90.6135 174.43C87.6694 173.899 85.4225 171.362 85.3388 168.285L85.3364 168.283L85.3387 168.28C85.3372 168.223 85.3364 168.165 85.3364 168.107C85.3364 164.837 87.7802 162.137 90.9414 161.734ZM116.579 197.506L95.7014 173.183C97.2138 172.008 98.1869 170.171 98.1869 168.107C98.1869 166.12 97.2847 164.344 95.8675 163.165L116.592 138.952C117.655 139.728 118.964 140.187 120.381 140.187C121.799 140.187 123.11 139.728 124.172 138.95L144.899 163.165C143.482 164.344 142.579 166.12 142.579 168.107C142.579 170.171 143.552 172.008 145.065 173.183L124.185 197.508C123.12 196.725 121.805 196.262 120.381 196.262C118.958 196.262 117.644 196.724 116.579 197.506ZM120.381 136.682C119.835 136.682 119.324 136.532 118.886 136.271C118.032 135.762 117.46 134.828 117.46 133.762C117.46 132.149 118.768 130.841 120.381 130.841C121.994 130.841 123.301 132.149 123.301 133.762C123.301 134.827 122.731 135.76 121.878 136.27C121.441 136.532 120.928 136.682 120.381 136.682ZM118.877 200.183C118.028 200.694 117.46 201.624 117.46 202.687C117.46 204.3 118.768 205.607 120.381 205.607C121.994 205.607 123.301 204.3 123.301 202.687C123.301 201.625 122.735 200.696 121.888 200.185C121.448 199.919 120.932 199.766 120.381 199.766C119.831 199.766 119.316 199.918 118.877 200.183ZM94.6822 168.107C94.6822 169.108 94.1793 169.991 93.4126 170.517C92.943 170.839 92.3743 171.028 91.7617 171.028C90.1487 171.028 88.8411 169.72 88.8411 168.107C88.8411 166.494 90.1487 165.187 91.7617 165.187C92.4528 165.187 93.0879 165.427 93.588 165.828C94.2551 166.364 94.6822 167.186 94.6822 168.107ZM147.354 170.517C146.587 169.991 146.084 169.108 146.084 168.107C146.084 167.186 146.511 166.364 147.178 165.828C147.678 165.427 148.314 165.187 149.005 165.187C150.618 165.187 151.925 166.494 151.925 168.107C151.925 169.72 150.618 171.028 149.005 171.028C148.392 171.028 147.823 170.839 147.354 170.517Z" fill="white"/>
<path fill-rule="evenodd" clip-rule="evenodd" d="M83 168.107C83 168.146 83.0003 168.185 83.0008 168.223C82.9987 168.305 83.0009 168.386 83.0073 168.467C83.1629 172.308 85.7868 175.507 89.335 176.528L111.621 202.492C111.62 202.557 111.619 202.622 111.619 202.687C111.619 207.526 115.542 211.449 120.381 211.449H120.384C125.222 211.447 129.143 207.525 129.143 202.687C129.143 202.623 129.142 202.56 129.141 202.497L151.431 176.528C154.98 175.507 157.603 172.308 157.759 168.467C157.765 168.386 157.768 168.305 157.766 168.223C157.766 168.185 157.766 168.146 157.766 168.107C157.766 163.977 154.911 160.517 151.065 159.59L129.14 133.974C129.142 133.904 129.143 133.833 129.143 133.762C129.143 128.924 125.222 125.002 120.384 125H120.381C115.542 125 111.619 128.923 111.619 133.762C111.619 133.834 111.62 133.907 111.622 133.979L89.7013 159.59C85.8558 160.517 83 163.977 83 168.107ZM85.3389 168.285L85.3364 168.283L85.3387 168.28C85.3372 168.223 85.3364 168.165 85.3364 168.107C85.3364 164.837 87.7802 162.137 90.9415 161.734L114.032 134.756C113.982 134.432 113.956 134.1 113.956 133.762C113.956 130.213 116.832 127.336 120.381 127.336H120.383C123.931 127.338 126.806 130.214 126.806 133.762C126.806 134.098 126.78 134.429 126.73 134.752L149.825 161.734C152.986 162.137 155.43 164.837 155.43 168.107C155.43 168.165 155.429 168.223 155.428 168.28L155.43 168.283L155.427 168.285C155.344 171.362 153.097 173.899 150.153 174.43L126.733 201.715C126.781 202.032 126.806 202.356 126.806 202.687C126.806 206.235 123.931 209.111 120.383 209.112H120.381C116.832 209.112 113.956 206.235 113.956 202.687C113.956 202.355 113.981 202.029 114.029 201.71L90.6135 174.43C87.6694 173.899 85.4225 171.362 85.3389 168.285Z" fill="#F24E1E"/>
<path d="M120.381 130.841C121.994 130.841 123.301 132.149 123.301 133.762C123.301 135.375 121.994 136.682 120.381 136.682C118.768 136.682 117.46 135.375 117.46 133.762C117.46 132.149 118.768 130.841 120.381 130.841Z" fill="#F24E1E"/>
<path d="M91.7616 165.187C93.3746 165.187 94.6822 166.494 94.6822 168.107C94.6822 169.72 93.3746 171.028 91.7616 171.028C90.1486 171.028 88.8411 169.72 88.8411 168.107C88.8411 166.494 90.1486 165.187 91.7616 165.187Z" fill="#F24E1E"/>
<path d="M149.005 165.187C150.618 165.187 151.925 166.494 151.925 168.107C151.925 169.72 150.618 171.028 149.005 171.028C147.392 171.028 146.084 169.72 146.084 168.107C146.084 166.494 147.392 165.187 149.005 165.187Z" fill="#F24E1E"/>
<path d="M123.301 202.687C123.301 204.3 121.994 205.607 120.381 205.607C118.768 205.607 117.46 204.3 117.46 202.687C117.46 201.074 118.768 199.766 120.381 199.766C121.994 199.766 123.301 201.074 123.301 202.687Z" fill="#F24E1E"/>
</svg>
