<svg width="14" height="14" viewBox="0 0 14 14" fill="none" xmlns="http://www.w3.org/2000/svg">
<path fill-rule="evenodd" clip-rule="evenodd" d="M11.2007 0.399994C11.2007 0.293909 11.2428 0.192169 11.3178 0.117156C11.3928 0.0421421 11.4945 0 11.6006 0C11.7067 0 11.8084 0.0421421 11.8834 0.117156C11.9584 0.192169 12.0005 0.293909 12.0005 0.399994V0.999985H12.6004C12.7064 0.999985 12.8081 1.04213 12.8831 1.11714C12.9581 1.19215 13.0003 1.29389 13.0003 1.39998C13.0003 1.50606 12.9581 1.6078 12.8831 1.68282C12.8081 1.75783 12.7064 1.79997 12.6004 1.79997H12.0005V2.39996C12.0005 2.45249 11.9902 2.50451 11.9701 2.55303C11.95 2.60156 11.9205 2.64566 11.8834 2.6828C11.8462 2.71994 11.8022 2.74941 11.7536 2.76951C11.7051 2.78961 11.6531 2.79996 11.6006 2.79996C11.5481 2.79996 11.4961 2.78961 11.4476 2.76951C11.3991 2.74941 11.355 2.71994 11.3178 2.6828C11.2807 2.64566 11.2512 2.60156 11.2311 2.55303C11.211 2.50451 11.2007 2.45249 11.2007 2.39996V1.79997H10.6009C10.4948 1.79997 10.3931 1.75783 10.3181 1.68282C10.2431 1.6078 10.201 1.50606 10.201 1.39998C10.201 1.29389 10.2431 1.19215 10.3181 1.11714C10.3931 1.04213 10.4948 0.999985 10.6009 0.999985H11.2007V0.399994ZM8.20146 3.39995C8.20146 3.34742 8.21181 3.29541 8.2319 3.24688C8.252 3.19835 8.28146 3.15425 8.31859 3.11711C8.35572 3.07997 8.39981 3.0505 8.44833 3.0304C8.49684 3.0103 8.54885 2.99995 8.60136 2.99995C8.65388 2.99995 8.70588 3.0103 8.7544 3.0304C8.80291 3.0505 8.847 3.07997 8.88413 3.11711C8.92127 3.15425 8.95072 3.19835 8.97082 3.24688C8.99092 3.29541 9.00126 3.34742 9.00126 3.39995V3.99994H9.60111C9.65362 3.99994 9.70563 4.01029 9.75414 4.03039C9.80266 4.05049 9.84675 4.07995 9.88388 4.1171C9.92101 4.15424 9.95047 4.19833 9.97057 4.24686C9.99066 4.29539 10.001 4.34741 10.001 4.39993C10.001 4.45246 9.99066 4.50447 9.97057 4.553C9.95047 4.60153 9.92101 4.64563 9.88388 4.68277C9.84675 4.71991 9.80266 4.74938 9.75414 4.76948C9.70563 4.78958 9.65362 4.79993 9.60111 4.79993H9.00126V5.39992C9.00126 5.45245 8.99092 5.50446 8.97082 5.55299C8.95072 5.60152 8.92127 5.64561 8.88413 5.68276C8.847 5.7199 8.80291 5.74936 8.7544 5.76946C8.70588 5.78957 8.65388 5.79991 8.60136 5.79991C8.54885 5.79991 8.49684 5.78957 8.44833 5.76946C8.39981 5.74936 8.35572 5.7199 8.31859 5.68276C8.28146 5.64561 8.252 5.60152 8.2319 5.55299C8.21181 5.50446 8.20146 5.45245 8.20146 5.39992V4.79993H7.60161C7.49555 4.79993 7.39384 4.75779 7.31884 4.68277C7.24385 4.60776 7.20171 4.50602 7.20171 4.39993C7.20171 4.29385 7.24385 4.19211 7.31884 4.1171C7.39384 4.04208 7.49555 3.99994 7.60161 3.99994H8.20146V3.39995ZM12.2005 6.3999C12.2005 6.29382 12.2426 6.19208 12.3176 6.11706C12.3926 6.04205 12.4943 5.99991 12.6004 5.99991C12.7064 5.99991 12.8081 6.04205 12.8831 6.11706C12.9581 6.19208 13.0003 6.29382 13.0003 6.3999V6.99989H13.6001C13.7062 6.99989 13.8079 7.04204 13.8829 7.11705C13.9579 7.19206 14 7.2938 14 7.39989C14 7.50597 13.9579 7.60771 13.8829 7.68273C13.8079 7.75774 13.7062 7.79988 13.6001 7.79988H13.0003V8.39987C13.0003 8.50596 12.9581 8.6077 12.8831 8.68271C12.8081 8.75772 12.7064 8.79987 12.6004 8.79987C12.4943 8.79987 12.3926 8.75772 12.3176 8.68271C12.2426 8.6077 12.2005 8.50596 12.2005 8.39987V7.79988H11.6006C11.4945 7.79988 11.3928 7.75774 11.3178 7.68273C11.2428 7.60771 11.2007 7.50597 11.2007 7.39989C11.2007 7.2938 11.2428 7.19206 11.3178 7.11705C11.3928 7.04204 11.4945 6.99989 11.6006 6.99989H12.2005V6.3999ZM5.55813 0.881987L5.85605 0.841987C6.069 0.817988 6.19597 1.06598 6.073 1.24198C5.3069 2.34517 4.89727 3.65672 4.89929 4.99992C4.89987 6.68832 5.54714 8.31234 6.70804 9.53805C7.86894 10.7638 9.45522 11.498 11.1407 11.5898C11.3547 11.6018 11.4736 11.8538 11.3237 12.0068C11.2552 12.077 11.1852 12.1457 11.1137 12.2128L11.0417 12.2788L10.7818 12.5048L10.5939 12.6528L10.4729 12.7428L10.2859 12.8738L10.11 12.9888C9.99001 13.0648 9.86604 13.1378 9.74007 13.2058L9.47614 13.3408L9.21621 13.4608L8.91328 13.5828L8.66934 13.6688C8.30994 13.7871 7.941 13.8741 7.56662 13.9288L7.2497 13.9688L6.98277 13.9888C6.02311 14.0448 5.06281 13.8904 4.16905 13.5364C3.27528 13.1824 2.46964 12.6374 1.80848 11.9394C1.14733 11.2414 0.646629 10.4073 0.341417 9.49559C0.036206 8.58382 -0.0661472 7.61636 0.0415186 6.6609L0.07851 6.3839C0.153189 5.89937 0.281962 5.42475 0.462413 4.96892L0.575384 4.70093L0.652365 4.53493L0.726346 4.38693C0.884846 4.07873 1.06736 3.78349 1.27221 3.50395L1.42517 3.30395L1.62412 3.06395L1.78708 2.88396L1.90705 2.75996L2.06701 2.60196L2.28995 2.40196L2.60987 2.14197L2.85481 1.96497L3.14674 1.77497L3.46766 1.58898L3.79557 1.42398L3.90854 1.37198L4.14848 1.27098L4.42441 1.16698L4.67635 1.08498L5.00127 0.994985L5.2662 0.934986L5.55813 0.881987ZM3.6986 5.19992C3.69785 4.20711 3.89215 3.22383 4.27045 2.30597C2.92535 2.93558 1.88539 4.07387 1.37936 5.47044C0.873324 6.867 0.942668 8.40743 1.57213 9.75285C2.2016 11.0983 3.33962 12.1385 4.73585 12.6446C6.13209 13.1508 7.67215 13.0814 9.01726 12.4518C7.57534 11.9974 6.30146 11.1236 5.35818 9.94185C5.26515 10.07 5.13393 10.1653 4.98335 10.2141C4.83278 10.263 4.6706 10.2628 4.52011 10.2137C4.36962 10.1646 4.23856 10.0691 4.14574 9.94083C4.05293 9.81257 4.00314 9.65819 4.00352 9.49986C4.00338 9.32969 4.0611 9.16454 4.1672 9.03152C4.2733 8.8985 4.42147 8.80553 4.58737 8.76787C4.52539 8.65187 4.4654 8.53287 4.40942 8.41287C4.24502 8.51461 4.05926 8.57681 3.86676 8.59458C3.67425 8.61235 3.48025 8.58521 3.30001 8.51528C3.11978 8.44536 2.95821 8.33456 2.82803 8.19161C2.69785 8.04865 2.60261 7.87744 2.54978 7.69143C2.49696 7.50542 2.488 7.30969 2.52361 7.11963C2.55922 6.92958 2.63843 6.75037 2.75501 6.59612C2.87159 6.44187 3.02236 6.31677 3.19545 6.23067C3.36855 6.14456 3.55926 6.0998 3.75258 6.09991C3.71859 5.80491 3.7006 5.50492 3.7006 5.19992" fill="white"/>
</svg>
