<svg width="14" height="14" viewBox="0 0 14 14" fill="none" xmlns="http://www.w3.org/2000/svg">
<path d="M2.548 10.5L2.051 10.997C1.92062 11.1282 1.84745 11.3056 1.84745 11.4905C1.84745 11.6754 1.92062 11.8528 2.051 11.984C2.18215 12.1144 2.35957 12.1876 2.5445 12.1876C2.72943 12.1876 2.90685 12.1144 3.038 11.984L3.535 11.487C3.64968 11.3531 3.7096 11.1808 3.7028 11.0047C3.69599 10.8285 3.62296 10.6614 3.49829 10.5367C3.37363 10.412 3.20651 10.339 3.03034 10.3322C2.85416 10.3254 2.68191 10.3853 2.548 10.5ZM2.1 7C2.1 6.81435 2.02625 6.6363 1.89497 6.50503C1.7637 6.37375 1.58565 6.3 1.4 6.3H0.7C0.514348 6.3 0.336301 6.37375 0.205025 6.50503C0.0737498 6.6363 0 6.81435 0 7C0 7.18565 0.0737498 7.3637 0.205025 7.49497C0.336301 7.62625 0.514348 7.7 0.7 7.7H1.4C1.58565 7.7 1.7637 7.62625 1.89497 7.49497C2.02625 7.3637 2.1 7.18565 2.1 7ZM7 2.1C7.18565 2.1 7.3637 2.02625 7.49497 1.89497C7.62625 1.7637 7.7 1.58565 7.7 1.4V0.7C7.7 0.514348 7.62625 0.336301 7.49497 0.205025C7.3637 0.0737498 7.18565 0 7 0C6.81435 0 6.6363 0.0737498 6.50503 0.205025C6.37375 0.336301 6.3 0.514348 6.3 0.7V1.4C6.3 1.58565 6.37375 1.7637 6.50503 1.89497C6.6363 2.02625 6.81435 2.1 7 2.1ZM2.548 3.535C2.67838 3.66432 2.85436 3.73723 3.038 3.738C3.13012 3.73853 3.22145 3.72088 3.30673 3.68604C3.39202 3.6512 3.46959 3.59988 3.535 3.535C3.66538 3.40385 3.73855 3.22643 3.73855 3.0415C3.73855 2.85657 3.66538 2.67915 3.535 2.548L3.038 2.051C2.90409 1.93632 2.73184 1.8764 2.55566 1.8832C2.37949 1.89001 2.21237 1.96304 2.08771 2.08771C1.96304 2.21237 1.89001 2.37949 1.8832 2.55566C1.8764 2.73184 1.93632 2.90409 2.051 3.038L2.548 3.535ZM10.948 3.738C11.1316 3.73723 11.3076 3.66432 11.438 3.535L11.935 3.038C12.0083 2.97525 12.0678 2.89802 12.1098 2.81118C12.1518 2.72433 12.1754 2.62974 12.1792 2.53334C12.1829 2.43693 12.1666 2.3408 12.1314 2.25097C12.0963 2.16115 12.0429 2.07956 11.9747 2.01134C11.9064 1.94313 11.8249 1.88975 11.735 1.85455C11.6452 1.81936 11.5491 1.80312 11.4527 1.80684C11.3563 1.81056 11.2617 1.83418 11.1748 1.87619C11.088 1.91821 11.0108 1.97772 10.948 2.051L10.5 2.548C10.3696 2.67915 10.2964 2.85657 10.2964 3.0415C10.2964 3.22643 10.3696 3.40385 10.5 3.535C10.6234 3.65775 10.7881 3.73013 10.962 3.738H10.948ZM13.3 6.3H12.6C12.4143 6.3 12.2363 6.37375 12.105 6.50503C11.9737 6.6363 11.9 6.81435 11.9 7C11.9 7.18565 11.9737 7.3637 12.105 7.49497C12.2363 7.62625 12.4143 7.7 12.6 7.7H13.3C13.4857 7.7 13.6637 7.62625 13.795 7.49497C13.9263 7.3637 14 7.18565 14 7C14 6.81435 13.9263 6.6363 13.795 6.50503C13.6637 6.37375 13.4857 6.3 13.3 6.3ZM7 11.9C6.81435 11.9 6.6363 11.9737 6.50503 12.105C6.37375 12.2363 6.3 12.4143 6.3 12.6V13.3C6.3 13.4857 6.37375 13.6637 6.50503 13.795C6.6363 13.9263 6.81435 14 7 14C7.18565 14 7.3637 13.9263 7.49497 13.795C7.62625 13.6637 7.7 13.4857 7.7 13.3V12.6C7.7 12.4143 7.62625 12.2363 7.49497 12.105C7.3637 11.9737 7.18565 11.9 7 11.9ZM11.452 10.5C11.319 10.426 11.1655 10.3974 11.0148 10.4185C10.8641 10.4395 10.7244 10.5092 10.6168 10.6168C10.5092 10.7244 10.4395 10.8641 10.4185 11.0148C10.3974 11.1655 10.426 11.319 10.5 11.452L10.997 11.949C11.1282 12.0794 11.3056 12.1526 11.4905 12.1526C11.6754 12.1526 11.8528 12.0794 11.984 11.949C12.1144 11.8178 12.1876 11.6404 12.1876 11.4555C12.1876 11.2706 12.1144 11.0932 11.984 10.962L11.452 10.5ZM7 3.15C6.23854 3.15 5.49418 3.3758 4.86105 3.79884C4.22793 4.22189 3.73446 4.82317 3.44306 5.52667C3.15167 6.23016 3.07542 7.00427 3.22398 7.7511C3.37253 8.49792 3.73921 9.18393 4.27764 9.72236C4.81607 10.2608 5.50208 10.6275 6.2489 10.776C6.99573 10.9246 7.76984 10.8483 8.47333 10.5569C9.17683 10.2655 9.77811 9.77207 10.2012 9.13895C10.6242 8.50582 10.85 7.76146 10.85 7C10.8481 5.97948 10.4419 5.0013 9.72032 4.27968C8.9987 3.55807 8.02051 3.15185 7 3.15ZM7 9.45C6.51544 9.45 6.04175 9.30631 5.63885 9.0371C5.23595 8.76789 4.92193 8.38525 4.73649 7.93757C4.55106 7.4899 4.50254 6.99728 4.59708 6.52203C4.69161 6.04677 4.92495 5.61023 5.26759 5.26759C5.61023 4.92495 6.04677 4.69161 6.52203 4.59708C6.99728 4.50254 7.4899 4.55106 7.93757 4.73649C8.38525 4.92193 8.76789 5.23595 9.0371 5.63885C9.30631 6.04175 9.45 6.51544 9.45 7C9.45 7.64978 9.19188 8.27295 8.73241 8.73241C8.27295 9.19188 7.64978 9.45 7 9.45Z" fill="white"/>
</svg>
